<svg width="24" height="25" viewBox="0 0 24 25" fill="none" xmlns="http://www.w3.org/2000/svg">
<path d="M22.5 9.00001L22.5 2.00001M22.5 2.00001H15.5M22.5 2.00001L12 12.5M9.66667 2H7.1C5.13982 2 4.15972 2 3.41103 2.38148C2.75247 2.71703 2.21703 3.25247 1.88148 3.91103C1.5 4.65972 1.5 5.63982 1.5 7.6V17.4C1.5 19.3602 1.5 20.3403 1.88148 21.089C2.21703 21.7475 2.75247 22.283 3.41103 22.6185C4.15972 23 5.13982 23 7.1 23H16.9C18.8602 23 19.8403 23 20.589 22.6185C21.2475 22.283 21.783 21.7475 22.1185 21.089C22.5 20.3403 22.5 19.3602 22.5 17.4V14.8333" stroke="#00B3FF" stroke-width="3" stroke-linecap="round" stroke-linejoin="round"/>
</svg>
